<svg width="302" height="38" viewBox="0 0 302 38" fill="none" xmlns="http://www.w3.org/2000/svg">
<path d="M36.2109 37H26.7578L14.7266 20.3984C14.2839 20.4245 13.8802 20.4505 13.5156 20.4766C13.1771 20.4766 12.8646 20.4766 12.5781 20.4766C12.3438 20.4766 12.0964 20.4766 11.8359 20.4766C11.5755 20.4505 11.3021 20.4245 11.0156 20.3984V30.7109C11.0156 31.9609 11.0938 32.9505 11.25 33.6797C11.4323 34.3828 11.6797 34.9167 11.9922 35.2812C12.3307 35.6198 12.7214 35.8281 13.1641 35.9062C13.6328 35.9844 14.1536 36.0234 14.7266 36.0234H16.1328V37H0.898438V36.0234H2.26562C3.72396 36.0234 4.79167 35.5417 5.46875 34.5781C5.83333 34.0052 6.01562 32.7161 6.01562 30.7109V7.78125C6.01562 5.59375 5.76823 4.21354 5.27344 3.64062C4.59635 2.85938 3.59375 2.46875 2.26562 2.46875H0.898438V1.49219H13.8281C15.7292 1.49219 17.3698 1.57031 18.75 1.72656C20.1302 1.85677 21.263 2.0651 22.1484 2.35156C23.0339 2.63802 23.8672 3.04167 24.6484 3.5625C25.4297 4.05729 26.1068 4.66927 26.6797 5.39844C27.2786 6.10156 27.7474 6.89583 28.0859 7.78125C28.4245 8.66667 28.5938 9.61719 28.5938 10.6328C28.5938 12.8464 27.8906 14.7474 26.4844 16.3359C25.0781 17.9245 22.8776 19.0573 19.8828 19.7344L27.1875 29.8906C28.0469 31.0625 28.8021 32.026 29.4531 32.7812C30.1302 33.5365 30.7943 34.1354 31.4453 34.5781C32.1224 35.0208 32.8255 35.3464 33.5547 35.5547C34.3099 35.763 35.1953 35.9193 36.2109 36.0234V37ZM11.0156 18.7578C11.3542 18.7578 11.6406 18.7708 11.875 18.7969C12.1354 18.7969 12.3438 18.7969 12.5 18.7969C14.1927 18.7969 15.6771 18.6016 16.9531 18.2109C18.2292 17.8203 19.2969 17.2734 20.1562 16.5703C21.0156 15.8672 21.6536 15.0469 22.0703 14.1094C22.513 13.1458 22.7344 12.1042 22.7344 10.9844C22.7344 9.89062 22.5521 8.88802 22.1875 7.97656C21.8229 7.03906 21.3021 6.24479 20.625 5.59375C19.9479 4.91667 19.1406 4.39583 18.2031 4.03125C17.2656 3.66667 16.237 3.48438 15.1172 3.48438C14.0495 3.48438 12.6823 3.65365 11.0156 3.99219V18.7578ZM46.9922 3.44531V17.4688H54.7656C55.9115 17.4688 56.8359 17.3646 57.5391 17.1562C58.2422 16.9479 58.7891 16.6354 59.1797 16.2188C59.5964 15.8021 59.8828 15.2682 60.0391 14.6172C60.1953 13.9661 60.2995 13.1979 60.3516 12.3125H61.3281V24.6562H60.3516C60.2214 23.6406 60.0651 22.7943 59.8828 22.1172C59.7266 21.4401 59.4531 20.9062 59.0625 20.5156C58.6979 20.099 58.1771 19.8125 57.5 19.6562C56.8229 19.474 55.9115 19.3828 54.7656 19.3828H46.9922V31.1016C46.9922 31.987 47.0052 32.6901 47.0312 33.2109C47.0573 33.7318 47.1615 34.1354 47.3438 34.4219C47.526 34.6823 47.8125 34.8516 48.2031 34.9297C48.5938 35.0078 49.1667 35.0469 49.9219 35.0469H55.9375C56.9531 35.0469 57.8125 35.0208 58.5156 34.9688C59.2188 34.9167 59.8177 34.8125 60.3125 34.6562C60.8333 34.5 61.2891 34.2917 61.6797 34.0312C62.0703 33.7448 62.487 33.3932 62.9297 32.9766C63.9714 31.9609 65.0781 30.3333 66.25 28.0938H67.3047L64.2188 37H36.875V36.0234H38.125C38.4635 36.0234 38.8151 35.9844 39.1797 35.9062C39.5443 35.8281 39.8828 35.724 40.1953 35.5938C40.5339 35.4375 40.8333 35.2422 41.0938 35.0078C41.3542 34.7734 41.5365 34.5 41.6406 34.1875C41.849 33.6146 41.9531 32.4688 41.9531 30.75V7.70312C41.9531 5.4375 41.7318 4.04427 41.2891 3.52344C40.6641 2.82031 39.6094 2.46875 38.125 2.46875H36.875V1.49219H64.2188V9.26562H63.5938C63.3333 7.98958 63.0469 6.97396 62.7344 6.21875C62.4479 5.4375 62.0573 4.83854 61.5625 4.42188C61.0677 4.00521 60.4297 3.74479 59.6484 3.64062C58.8932 3.51042 57.9167 3.44531 56.7188 3.44531H46.9922ZM67.8125 1.49219H77.4219L99.1406 28.1328V7.66406C99.1406 6.46615 99.0495 5.51562 98.8672 4.8125C98.7109 4.10938 98.4635 3.58854 98.125 3.25C97.8125 2.91146 97.4219 2.70312 96.9531 2.625C96.4844 2.52083 95.9505 2.46875 95.3516 2.46875H94.1016V1.49219H106.484V2.46875H105.195C104.57 2.46875 104.023 2.52083 103.555 2.625C103.086 2.72917 102.695 2.96354 102.383 3.32812C102.07 3.69271 101.836 4.21354 101.68 4.89062C101.523 5.56771 101.445 6.49219 101.445 7.66406V37.5859H100.508L77.1094 8.99219V30.8672C77.1094 32.0911 77.1875 33.0547 77.3438 33.7578C77.526 34.4349 77.7734 34.9427 78.0859 35.2812C78.3984 35.6198 78.7891 35.8281 79.2578 35.9062C79.7266 35.9844 80.2604 36.0234 80.8594 36.0234H82.1094V37H69.7656V36.0234H71.0156C71.6406 36.0234 72.1875 35.9714 72.6562 35.8672C73.125 35.763 73.5156 35.5417 73.8281 35.2031C74.1667 34.8385 74.4141 34.3177 74.5703 33.6406C74.7266 32.9635 74.8047 32.0391 74.8047 30.8672V6.17969C74.2839 5.55469 73.8411 5.0599 73.4766 4.69531C73.138 4.33073 72.8125 4.03125 72.5 3.79688C72.1875 3.5625 71.849 3.36719 71.4844 3.21094C71.1198 3.05469 70.6641 2.88542 70.1172 2.70312C69.5964 2.54688 68.8281 2.46875 67.8125 2.46875V1.49219ZM138.281 1.49219V9.85156H137.695C137.409 7.61198 136.745 6.03646 135.703 5.125C134.688 4.1875 133.177 3.71875 131.172 3.71875H126.172V30.8672C126.172 32.0651 126.25 33.0156 126.406 33.7188C126.589 34.3958 126.836 34.9036 127.148 35.2422C127.461 35.5807 127.852 35.8021 128.32 35.9062C128.789 35.9844 129.336 36.0234 129.961 36.0234H131.172V37H116.133V36.0234H117.383C118.008 36.0234 118.555 35.9714 119.023 35.8672C119.492 35.763 119.883 35.5417 120.195 35.2031C120.508 34.8385 120.742 34.3177 120.898 33.6406C121.081 32.9635 121.172 32.0391 121.172 30.8672V3.71875H116.914C115.846 3.71875 114.896 3.8099 114.062 3.99219C113.255 4.14844 112.552 4.46094 111.953 4.92969C111.354 5.3724 110.872 5.9974 110.508 6.80469C110.169 7.58594 109.961 8.60156 109.883 9.85156H108.906V1.49219H138.281ZM159.609 0.710938C161.875 0.710938 164.036 1.17969 166.094 2.11719C168.151 3.05469 169.961 4.34375 171.523 5.98438C173.086 7.625 174.323 9.5651 175.234 11.8047C176.172 14.0182 176.641 16.4271 176.641 19.0312C176.641 21.7135 176.172 24.2005 175.234 26.4922C174.323 28.7839 173.073 30.776 171.484 32.4688C169.922 34.1354 168.073 35.4505 165.938 36.4141C163.828 37.3516 161.576 37.8203 159.18 37.8203C156.758 37.8203 154.492 37.3646 152.383 36.4531C150.273 35.5417 148.438 34.2656 146.875 32.625C145.339 30.9583 144.115 28.9792 143.203 26.6875C142.318 24.3958 141.875 21.8698 141.875 19.1094C141.875 16.5573 142.318 14.1615 143.203 11.9219C144.115 9.68229 145.352 7.74219 146.914 6.10156C148.503 4.4349 150.378 3.11979 152.539 2.15625C154.701 1.19271 157.057 0.710938 159.609 0.710938ZM159.102 2.625C157.305 2.625 155.703 3.01562 154.297 3.79688C152.917 4.55208 151.745 5.64583 150.781 7.07812C149.844 8.48438 149.128 10.2031 148.633 12.2344C148.138 14.2396 147.891 16.5052 147.891 19.0312C147.891 21.5312 148.125 23.8229 148.594 25.9062C149.089 27.9635 149.805 29.7474 150.742 31.2578C151.706 32.7422 152.891 33.901 154.297 34.7344C155.703 35.5417 157.318 35.9453 159.141 35.9453C160.781 35.9453 162.292 35.6328 163.672 35.0078C165.078 34.3828 166.302 33.4193 167.344 32.1172C168.385 30.7891 169.193 29.1094 169.766 27.0781C170.365 25.0208 170.664 22.5729 170.664 19.7344C170.664 17.0521 170.417 14.6562 169.922 12.5469C169.453 10.4115 168.724 8.61458 167.734 7.15625C166.771 5.67188 165.56 4.55208 164.102 3.79688C162.669 3.01562 161.003 2.625 159.102 2.625ZM209.492 27.1953L210.352 27.3516L207.305 37H179.805V36.0234H181.172C182.63 36.0234 183.698 35.5417 184.375 34.5781C184.74 34.0052 184.922 32.7161 184.922 30.7109V7.78125C184.922 5.59375 184.674 4.21354 184.18 3.64062C183.503 2.85938 182.5 2.46875 181.172 2.46875H179.805V1.49219H195.898V2.46875C194.935 2.46875 194.128 2.52083 193.477 2.625C192.852 2.70312 192.331 2.83333 191.914 3.01562C191.497 3.17188 191.172 3.36719 190.938 3.60156C190.703 3.83594 190.508 4.09635 190.352 4.38281C190.091 4.90365 189.961 6.24479 189.961 8.40625V30.7109C189.961 31.9349 190.052 32.8203 190.234 33.3672C190.417 33.9141 190.781 34.2917 191.328 34.5C191.797 34.6562 193.164 34.7344 195.43 34.7344H198.008C200.742 34.7344 202.656 34.5391 203.75 34.1484C204.297 33.9661 204.818 33.7057 205.312 33.3672C205.807 33.0286 206.289 32.5859 206.758 32.0391C207.227 31.4922 207.682 30.8281 208.125 30.0469C208.568 29.2656 209.023 28.3151 209.492 27.1953ZM218.203 31.9219C218.984 31.9219 219.661 32.2083 220.234 32.7812C220.807 33.3281 221.094 34.0052 221.094 34.8125C221.094 35.6198 220.807 36.3099 220.234 36.8828C219.661 37.4557 218.984 37.7422 218.203 37.7422C217.396 37.7422 216.706 37.4557 216.133 36.8828C215.56 36.3099 215.273 35.6198 215.273 34.8125C215.273 33.9792 215.56 33.2891 216.133 32.7422C216.706 32.1953 217.396 31.9219 218.203 31.9219ZM250.508 2.46875V1.49219H263.047V2.46875H261.719C260.365 2.46875 259.297 3.05469 258.516 4.22656C258.151 4.7474 257.969 6.01042 257.969 8.01562V22.3906C257.969 25.8802 257.604 28.6536 256.875 30.7109C256.51 31.7005 255.99 32.625 255.312 33.4844C254.635 34.3438 253.776 35.099 252.734 35.75C251.693 36.375 250.469 36.8698 249.062 37.2344C247.682 37.625 246.094 37.8203 244.297 37.8203C242.344 37.8203 240.638 37.651 239.18 37.3125C237.721 36.974 236.471 36.4792 235.43 35.8281C234.388 35.1771 233.529 34.3958 232.852 33.4844C232.174 32.5729 231.628 31.5443 231.211 30.3984C230.638 28.8099 230.352 25.8932 230.352 21.6484V7.78125C230.352 6.6875 230.273 5.80208 230.117 5.125C229.987 4.42188 229.766 3.875 229.453 3.48438C229.141 3.09375 228.737 2.83333 228.242 2.70312C227.773 2.54688 227.214 2.46875 226.562 2.46875H225.195V1.49219H240.547V2.46875H239.18C238.555 2.46875 238.008 2.53385 237.539 2.66406C237.07 2.79427 236.68 3.05469 236.367 3.44531C236.055 3.8099 235.807 4.34375 235.625 5.04688C235.469 5.72396 235.391 6.63542 235.391 7.78125V23.25C235.391 24.8125 235.495 26.3359 235.703 27.8203C235.911 29.3047 236.341 30.6328 236.992 31.8047C237.643 32.9505 238.568 33.875 239.766 34.5781C240.99 35.2552 242.604 35.5938 244.609 35.5938C245.755 35.5938 246.862 35.4635 247.93 35.2031C248.997 34.9167 249.961 34.5391 250.82 34.0703C251.706 33.6016 252.474 33.0417 253.125 32.3906C253.776 31.7135 254.258 30.9844 254.57 30.2031C255.247 28.6667 255.586 25.9844 255.586 22.1562V7.78125C255.586 5.59375 255.339 4.21354 254.844 3.64062C254.167 2.85938 253.164 2.46875 251.836 2.46875H250.508ZM288.203 25.125H274.453L272.031 30.7109C271.458 32.0911 271.172 33.1198 271.172 33.7969C271.172 34.0833 271.211 34.3438 271.289 34.5781C271.393 34.8125 271.589 35.0339 271.875 35.2422C272.188 35.4245 272.604 35.5938 273.125 35.75C273.672 35.8802 274.388 35.9714 275.273 36.0234V37H264.102V36.0234C264.987 35.8932 265.703 35.6979 266.25 35.4375C266.797 35.1771 267.266 34.8255 267.656 34.3828C268.047 33.9141 268.398 33.3151 268.711 32.5859C269.049 31.8568 269.453 30.9583 269.922 29.8906L282.422 0.710938H283.32L295.664 30.2031C296.159 31.4271 296.615 32.4167 297.031 33.1719C297.474 33.901 297.917 34.474 298.359 34.8906C298.828 35.3073 299.323 35.5938 299.844 35.75C300.391 35.9062 301.042 35.9974 301.797 36.0234V37H287.773V36.0234C289.18 35.9714 290.13 35.75 290.625 35.3594C291.146 34.9427 291.406 34.4479 291.406 33.875C291.38 33.1198 291.029 31.8958 290.352 30.2031L288.203 25.125ZM287.461 23.1719L281.445 8.83594L275.273 23.1719H287.461Z" fill="black"/>
</svg>
